<svg width="192" height="156" viewBox="0 0 192 156" fill="none" xmlns="http://www.w3.org/2000/svg">
<path opacity="0.8" d="M4.77198 125H0.505984V112.67H4.77198C6.66798 112.67 7.96398 113.15 8.65998 114.11C9.35598 115.07 9.70398 116.576 9.70398 118.628C9.70398 119.672 9.63198 120.56 9.48798 121.292C9.35598 122.012 9.11599 122.666 8.76799 123.254C8.08399 124.418 6.75198 125 4.77198 125ZM7.63398 118.628C7.63398 117.14 7.44798 116.066 7.07599 115.406C6.70398 114.746 5.93598 114.416 4.77198 114.416H2.50398V123.236H4.77198C5.95998 123.236 6.75198 122.798 7.14798 121.922C7.33998 121.478 7.46598 121.004 7.52598 120.5C7.59798 119.996 7.63398 119.372 7.63398 118.628ZM11.8032 125V116H13.7472V117.08C14.7672 116.42 15.7872 115.994 16.8072 115.802V117.764C15.7752 117.968 14.8932 118.232 14.1612 118.556L13.7652 118.718V125H11.8032ZM24.9671 118.772V122.876C24.9791 123.14 25.0451 123.338 25.1651 123.47C25.2971 123.59 25.4951 123.668 25.7591 123.704L25.7051 125.198C24.6731 125.198 23.8751 124.976 23.3111 124.532C22.3511 124.976 21.3851 125.198 20.4131 125.198C18.6251 125.198 17.7311 124.244 17.7311 122.336C17.7311 121.424 17.9711 120.764 18.4511 120.356C18.9431 119.948 19.6931 119.702 20.7011 119.618L23.0231 119.42V118.772C23.0231 118.292 22.9151 117.956 22.6991 117.764C22.4951 117.572 22.1891 117.476 21.7811 117.476C21.0131 117.476 20.0531 117.524 18.9011 117.62L18.3251 117.656L18.2531 116.27C19.5611 115.958 20.7611 115.802 21.8531 115.802C22.9571 115.802 23.7491 116.042 24.2291 116.522C24.7211 116.99 24.9671 117.74 24.9671 118.772ZM20.9351 121.004C20.1071 121.076 19.6931 121.526 19.6931 122.354C19.6931 123.182 20.0591 123.596 20.7911 123.596C21.3911 123.596 22.0271 123.5 22.6991 123.308L23.0231 123.2V120.806L20.9351 121.004ZM35.2962 126.224C35.2962 128.192 33.8742 129.176 31.0302 129.176C29.6622 129.176 28.6482 128.99 27.9882 128.618C27.3282 128.246 26.9982 127.568 26.9982 126.584C26.9982 126.14 27.1062 125.756 27.3222 125.432C27.5382 125.12 27.8862 124.778 28.3662 124.406C27.9702 124.142 27.7722 123.704 27.7722 123.092C27.7722 122.852 27.9342 122.462 28.2582 121.922L28.4202 121.652C27.5562 121.136 27.1242 120.236 27.1242 118.952C27.1242 117.872 27.4482 117.08 28.0962 116.576C28.7442 116.072 29.6202 115.82 30.7242 115.82C31.2522 115.82 31.7742 115.88 32.2902 116L32.5602 116.054L35.3502 115.982V117.566L33.8562 117.476C34.1802 117.896 34.3422 118.388 34.3422 118.952C34.3422 120.128 34.0422 120.944 33.4422 121.4C32.8542 121.844 31.9302 122.066 30.6702 122.066C30.3582 122.066 30.0942 122.042 29.8782 121.994C29.7102 122.402 29.6262 122.72 29.6262 122.948C29.6262 123.164 29.7342 123.314 29.9502 123.398C30.1782 123.482 30.7182 123.53 31.5702 123.542C32.9982 123.554 33.9762 123.746 34.5042 124.118C35.0322 124.49 35.2962 125.192 35.2962 126.224ZM28.9242 126.404C28.9242 126.824 29.0922 127.124 29.4282 127.304C29.7642 127.484 30.3402 127.574 31.1562 127.574C32.6082 127.574 33.3342 127.16 33.3342 126.332C33.3342 125.864 33.2022 125.564 32.9382 125.432C32.6862 125.312 32.1762 125.246 31.4082 125.234L29.6442 125.126C29.3802 125.342 29.1942 125.54 29.0862 125.72C28.9782 125.912 28.9242 126.14 28.9242 126.404ZM29.0682 118.952C29.0682 119.504 29.2002 119.912 29.4642 120.176C29.7282 120.428 30.1542 120.554 30.7422 120.554C31.3302 120.554 31.7502 120.428 32.0022 120.176C32.2662 119.912 32.3982 119.504 32.3982 118.952C32.3982 118.4 32.2662 117.998 32.0022 117.746C31.7382 117.482 31.3122 117.35 30.7242 117.35C29.6202 117.35 29.0682 117.884 29.0682 118.952ZM41.8683 114.956C41.8683 114.128 42.1743 113.474 42.7863 112.994C43.4103 112.514 44.2683 112.274 45.3603 112.274C46.4523 112.274 47.2923 112.52 47.8803 113.012C48.4683 113.492 48.7623 114.164 48.7623 115.028C48.7623 115.88 48.5703 116.552 48.1863 117.044C47.8023 117.536 47.1243 118.064 46.1523 118.628L48.3483 120.806C48.4323 120.578 48.5163 120.188 48.6003 119.636C48.6843 119.072 48.7383 118.604 48.7623 118.232L50.6523 118.268C50.4843 119.732 50.1903 120.962 49.7703 121.958L51.9123 123.92L50.7963 125.198L48.7623 123.434C48.3663 123.986 47.8383 124.418 47.1783 124.73C46.5183 125.042 45.7923 125.198 45.0003 125.198C43.3083 125.198 42.1083 124.88 41.4003 124.244C40.6923 123.608 40.3383 122.666 40.3383 121.418C40.3383 120.422 40.5483 119.654 40.9683 119.114C41.3883 118.562 42.0663 118.112 43.0023 117.764C42.5343 117.224 42.2283 116.768 42.0843 116.396C41.9403 116.024 41.8683 115.544 41.8683 114.956ZM44.7843 123.452C45.3603 123.452 45.8883 123.356 46.3683 123.164C46.8483 122.96 47.2023 122.684 47.4303 122.336L44.0283 118.934C43.4283 119.162 42.9903 119.456 42.7143 119.816C42.4503 120.176 42.3183 120.656 42.3183 121.256C42.3183 122.72 43.1403 123.452 44.7843 123.452ZM43.8483 115.352C43.8483 115.94 44.1183 116.522 44.6583 117.098L45.0543 117.512C45.6903 117.152 46.1343 116.816 46.3863 116.504C46.6503 116.192 46.7823 115.79 46.7823 115.298C46.7823 114.386 46.2903 113.93 45.3063 113.93C44.3343 113.93 43.8483 114.404 43.8483 115.352ZM61.8306 125H57.5646V112.67H61.8306C63.7266 112.67 65.0226 113.15 65.7186 114.11C66.4146 115.07 66.7626 116.576 66.7626 118.628C66.7626 119.672 66.6906 120.56 66.5466 121.292C66.4146 122.012 66.1746 122.666 65.8266 123.254C65.1426 124.418 63.8106 125 61.8306 125ZM64.6926 118.628C64.6926 117.14 64.5066 116.066 64.1346 115.406C63.7626 114.746 62.9946 114.416 61.8306 114.416H59.5626V123.236H61.8306C63.0186 123.236 63.8106 122.798 64.2066 121.922C64.3986 121.478 64.5246 121.004 64.5846 120.5C64.6566 119.996 64.6926 119.372 64.6926 118.628ZM68.8618 125V116H70.8058V117.08C71.8258 116.42 72.8458 115.994 73.8658 115.802V117.764C72.8338 117.968 71.9518 118.232 71.2198 118.556L70.8238 118.718V125H68.8618ZM75.7814 116.972C76.4054 116.192 77.4374 115.802 78.8774 115.802C80.3174 115.802 81.3434 116.192 81.9554 116.972C82.5794 117.752 82.8914 118.922 82.8914 120.482C82.8914 122.042 82.5914 123.218 81.9914 124.01C81.3914 124.802 80.3534 125.198 78.8774 125.198C77.4014 125.198 76.3634 124.802 75.7634 124.01C75.1634 123.218 74.8634 122.042 74.8634 120.482C74.8634 118.922 75.1694 117.752 75.7814 116.972ZM77.2574 122.822C77.5334 123.302 78.0734 123.542 78.8774 123.542C79.6814 123.542 80.2214 123.302 80.4974 122.822C80.7734 122.342 80.9114 121.556 80.9114 120.464C80.9114 119.372 80.7614 118.598 80.4614 118.142C80.1734 117.686 79.6454 117.458 78.8774 117.458C78.1094 117.458 77.5754 117.686 77.2754 118.142C76.9874 118.598 76.8434 119.372 76.8434 120.464C76.8434 121.556 76.9814 122.342 77.2574 122.822ZM84.8403 128.87V116H86.7843V116.558C87.6123 116.054 88.3863 115.802 89.1063 115.802C90.2943 115.802 91.1643 116.168 91.7163 116.9C92.2683 117.62 92.5443 118.838 92.5443 120.554C92.5443 122.258 92.2263 123.458 91.5903 124.154C90.9663 124.85 89.9403 125.198 88.5123 125.198C88.0203 125.198 87.4503 125.144 86.8023 125.036V128.87H84.8403ZM88.7643 117.548C88.2003 117.548 87.6363 117.674 87.0723 117.926L86.8023 118.052V123.362C87.2823 123.458 87.8103 123.506 88.3863 123.506C89.2023 123.506 89.7663 123.272 90.0783 122.804C90.3903 122.336 90.5463 121.538 90.5463 120.41C90.5463 118.502 89.9523 117.548 88.7643 117.548ZM105.123 118.772V122.876C105.135 123.14 105.201 123.338 105.321 123.47C105.453 123.59 105.651 123.668 105.915 123.704L105.861 125.198C104.829 125.198 104.031 124.976 103.467 124.532C102.507 124.976 101.541 125.198 100.569 125.198C98.7814 125.198 97.8874 124.244 97.8874 122.336C97.8874 121.424 98.1274 120.764 98.6074 120.356C99.0994 119.948 99.8494 119.702 100.857 119.618L103.179 119.42V118.772C103.179 118.292 103.071 117.956 102.855 117.764C102.651 117.572 102.345 117.476 101.937 117.476C101.169 117.476 100.209 117.524 99.0574 117.62L98.4814 117.656L98.4094 116.27C99.7174 115.958 100.917 115.802 102.009 115.802C103.113 115.802 103.905 116.042 104.385 116.522C104.877 116.99 105.123 117.74 105.123 118.772ZM101.091 121.004C100.263 121.076 99.8494 121.526 99.8494 122.354C99.8494 123.182 100.215 123.596 100.947 123.596C101.547 123.596 102.183 123.5 102.855 123.308L103.179 123.2V120.806L101.091 121.004ZM115.916 125.198C114.116 125.198 112.892 124.7 112.244 123.704C111.608 122.708 111.29 121.07 111.29 118.79C111.29 116.51 111.614 114.89 112.262 113.93C112.91 112.958 114.128 112.472 115.916 112.472C116.984 112.472 118.16 112.622 119.444 112.922L119.372 114.542C118.292 114.35 117.212 114.254 116.132 114.254C115.052 114.254 114.32 114.578 113.936 115.226C113.552 115.862 113.36 117.068 113.36 118.844C113.36 120.608 113.546 121.814 113.918 122.462C114.29 123.098 115.016 123.416 116.096 123.416C117.176 123.416 118.268 123.326 119.372 123.146L119.426 124.802C118.19 125.066 117.02 125.198 115.916 125.198ZM125.185 114.218C123.661 114.218 122.899 114.752 122.899 115.82C122.899 116.372 123.079 116.768 123.439 117.008C123.799 117.236 124.591 117.524 125.815 117.872C127.051 118.208 127.921 118.616 128.425 119.096C128.929 119.564 129.181 120.308 129.181 121.328C129.181 122.624 128.809 123.596 128.065 124.244C127.333 124.88 126.331 125.198 125.059 125.198C124.039 125.198 122.911 125.078 121.675 124.838L121.027 124.712L121.225 123.11C122.845 123.326 124.081 123.434 124.933 123.434C126.421 123.434 127.165 122.774 127.165 121.454C127.165 120.938 126.997 120.56 126.661 120.32C126.325 120.068 125.569 119.798 124.393 119.51C123.217 119.21 122.341 118.802 121.765 118.286C121.189 117.77 120.901 116.954 120.901 115.838C120.901 114.722 121.261 113.882 121.981 113.318C122.713 112.742 123.721 112.454 125.005 112.454C125.929 112.454 127.021 112.562 128.281 112.778L128.911 112.886L128.749 114.506C127.069 114.314 125.881 114.218 125.185 114.218ZM138.004 112.67H140.092L137.068 125H133.144L130.12 112.67H132.208L134.656 123.236H135.556L138.004 112.67ZM145.824 125V112.67H153.474V114.416H147.822V118.574H152.52V120.32H147.822V125H145.824ZM155.118 125V116H157.08V125H155.118ZM155.118 114.47V112.4H157.08V114.47H155.118ZM159.567 125V112.256H161.529V125H159.567ZM170.42 123.38L170.924 123.326L170.96 124.784C169.592 125.06 168.38 125.198 167.324 125.198C165.992 125.198 165.032 124.832 164.444 124.1C163.868 123.368 163.58 122.198 163.58 120.59C163.58 117.398 164.882 115.802 167.486 115.802C170.006 115.802 171.266 117.176 171.266 119.924L171.14 121.328H165.56C165.572 122.072 165.734 122.618 166.046 122.966C166.358 123.314 166.94 123.488 167.792 123.488C168.644 123.488 169.52 123.452 170.42 123.38ZM169.34 119.816C169.34 118.928 169.196 118.31 168.908 117.962C168.632 117.602 168.158 117.422 167.486 117.422C166.814 117.422 166.322 117.608 166.01 117.98C165.71 118.352 165.554 118.964 165.542 119.816H169.34ZM181.95 117.674H179.466V121.634C179.466 122.366 179.52 122.852 179.628 123.092C179.736 123.332 180.012 123.452 180.456 123.452L181.932 123.398L182.022 124.964C181.218 125.12 180.606 125.198 180.186 125.198C179.166 125.198 178.464 124.964 178.08 124.496C177.708 124.028 177.522 123.146 177.522 121.85V117.674H176.37V116H177.522V113.39H179.466V116H181.95V117.674ZM184.045 116.972C184.669 116.192 185.701 115.802 187.141 115.802C188.581 115.802 189.607 116.192 190.219 116.972C190.843 117.752 191.155 118.922 191.155 120.482C191.155 122.042 190.855 123.218 190.255 124.01C189.655 124.802 188.617 125.198 187.141 125.198C185.665 125.198 184.627 124.802 184.027 124.01C183.427 123.218 183.127 122.042 183.127 120.482C183.127 118.922 183.433 117.752 184.045 116.972ZM185.521 122.822C185.797 123.302 186.337 123.542 187.141 123.542C187.945 123.542 188.485 123.302 188.761 122.822C189.037 122.342 189.175 121.556 189.175 120.464C189.175 119.372 189.025 118.598 188.725 118.142C188.437 117.686 187.909 117.458 187.141 117.458C186.373 117.458 185.839 117.686 185.539 118.142C185.251 118.598 185.107 119.372 185.107 120.464C185.107 121.556 185.245 122.342 185.521 122.822ZM71.707 148.058C71.707 149.654 72.547 150.452 74.227 150.452C75.907 150.452 76.747 149.654 76.747 148.058V139.67H78.763V148.022C78.763 149.474 78.379 150.536 77.611 151.208C76.855 151.868 75.721 152.198 74.209 152.198C72.709 152.198 71.581 151.868 70.825 151.208C70.069 150.536 69.691 149.474 69.691 148.022V139.67H71.707V148.058ZM81.2017 155.87V143H83.1457V143.558C83.9737 143.054 84.7477 142.802 85.4677 142.802C86.6557 142.802 87.5257 143.168 88.0777 143.9C88.6297 144.62 88.9057 145.838 88.9057 147.554C88.9057 149.258 88.5877 150.458 87.9517 151.154C87.3277 151.85 86.3017 152.198 84.8737 152.198C84.3817 152.198 83.8117 152.144 83.1637 152.036V155.87H81.2017ZM85.1257 144.548C84.5617 144.548 83.9977 144.674 83.4337 144.926L83.1637 145.052V150.362C83.6437 150.458 84.1717 150.506 84.7477 150.506C85.5637 150.506 86.1277 150.272 86.4397 149.804C86.7517 149.336 86.9077 148.538 86.9077 147.41C86.9077 145.502 86.3137 144.548 85.1257 144.548ZM90.9776 152V139.256H92.9396V152H90.9776ZM95.9084 143.972C96.5324 143.192 97.5644 142.802 99.0044 142.802C100.444 142.802 101.47 143.192 102.082 143.972C102.706 144.752 103.018 145.922 103.018 147.482C103.018 149.042 102.718 150.218 102.118 151.01C101.518 151.802 100.48 152.198 99.0044 152.198C97.5284 152.198 96.4904 151.802 95.8904 151.01C95.2904 150.218 94.9904 149.042 94.9904 147.482C94.9904 145.922 95.2964 144.752 95.9084 143.972ZM97.3844 149.822C97.6604 150.302 98.2004 150.542 99.0044 150.542C99.8084 150.542 100.348 150.302 100.624 149.822C100.9 149.342 101.038 148.556 101.038 147.464C101.038 146.372 100.888 145.598 100.588 145.142C100.3 144.686 99.7724 144.458 99.0044 144.458C98.2364 144.458 97.7024 144.686 97.4024 145.142C97.1144 145.598 96.9704 146.372 96.9704 147.464C96.9704 148.556 97.1084 149.342 97.3844 149.822ZM111.627 145.772V149.876C111.639 150.14 111.705 150.338 111.825 150.47C111.957 150.59 112.155 150.668 112.419 150.704L112.365 152.198C111.333 152.198 110.535 151.976 109.971 151.532C109.011 151.976 108.045 152.198 107.073 152.198C105.285 152.198 104.391 151.244 104.391 149.336C104.391 148.424 104.631 147.764 105.111 147.356C105.603 146.948 106.353 146.702 107.361 146.618L109.683 146.42V145.772C109.683 145.292 109.575 144.956 109.359 144.764C109.155 144.572 108.849 144.476 108.441 144.476C107.673 144.476 106.713 144.524 105.561 144.62L104.985 144.656L104.913 143.27C106.221 142.958 107.421 142.802 108.513 142.802C109.617 142.802 110.409 143.042 110.889 143.522C111.381 143.99 111.627 144.74 111.627 145.772ZM107.595 148.004C106.767 148.076 106.353 148.526 106.353 149.354C106.353 150.182 106.719 150.596 107.451 150.596C108.051 150.596 108.687 150.5 109.359 150.308L109.683 150.2V147.806L107.595 148.004ZM121.434 139.256V152H119.49V151.532C118.614 151.976 117.81 152.198 117.078 152.198C115.902 152.198 115.038 151.844 114.486 151.136C113.946 150.428 113.676 149.24 113.676 147.572C113.676 145.904 113.976 144.692 114.576 143.936C115.188 143.18 116.136 142.802 117.42 142.802C117.852 142.802 118.536 142.88 119.472 143.036V139.256H121.434ZM119.166 150.128L119.472 150.002V144.674C118.752 144.554 118.086 144.494 117.474 144.494C116.262 144.494 115.656 145.502 115.656 147.518C115.656 148.622 115.794 149.39 116.07 149.822C116.358 150.242 116.808 150.452 117.42 150.452C118.032 150.452 118.614 150.344 119.166 150.128Z" fill="#2DA5FC"/>
<path d="M41.896 85V68.56H44.56V85H41.896ZM50.6453 85H48.0293V73H50.6213V73.744C51.7573 73.072 52.7973 72.736 53.7413 72.736C55.1333 72.736 56.1493 73.128 56.7893 73.912C58.2453 73.128 59.6933 72.736 61.1333 72.736C62.5733 72.736 63.5893 73.184 64.1813 74.08C64.7733 74.96 65.0693 76.456 65.0693 78.568V85H62.4773V78.64C62.4773 77.344 62.3413 76.424 62.0693 75.88C61.8133 75.336 61.2693 75.064 60.4373 75.064C59.7173 75.064 58.9413 75.224 58.1093 75.544L57.7013 75.712C57.8293 76.032 57.8933 77.056 57.8933 78.784V85H55.3013V78.832C55.3013 77.408 55.1733 76.424 54.9173 75.88C54.6613 75.336 54.1013 75.064 53.2373 75.064C52.4373 75.064 51.6933 75.224 51.0053 75.544L50.6453 75.688V85ZM68.1387 90.16V73H70.7307V73.744C71.8347 73.072 72.8667 72.736 73.8267 72.736C75.4107 72.736 76.5707 73.224 77.3067 74.2C78.0427 75.16 78.4107 76.784 78.4107 79.072C78.4107 81.344 77.9867 82.944 77.1387 83.872C76.3067 84.8 74.9387 85.264 73.0347 85.264C72.3787 85.264 71.6187 85.192 70.7547 85.048V90.16H68.1387ZM73.3707 75.064C72.6187 75.064 71.8667 75.232 71.1147 75.568L70.7547 75.736V82.816C71.3947 82.944 72.0987 83.008 72.8667 83.008C73.9547 83.008 74.7067 82.696 75.1227 82.072C75.5387 81.448 75.7467 80.384 75.7467 78.88C75.7467 76.336 74.9547 75.064 73.3707 75.064ZM81.6773 74.296C82.5093 73.256 83.8853 72.736 85.8053 72.736C87.7253 72.736 89.0933 73.256 89.9093 74.296C90.7413 75.336 91.1573 76.896 91.1573 78.976C91.1573 81.056 90.7573 82.624 89.9573 83.68C89.1573 84.736 87.7733 85.264 85.8053 85.264C83.8373 85.264 82.4533 84.736 81.6533 83.68C80.8533 82.624 80.4533 81.056 80.4533 78.976C80.4533 76.896 80.8613 75.336 81.6773 74.296ZM83.6453 82.096C84.0133 82.736 84.7333 83.056 85.8053 83.056C86.8773 83.056 87.5973 82.736 87.9653 82.096C88.3333 81.456 88.5173 80.408 88.5173 78.952C88.5173 77.496 88.3173 76.464 87.9173 75.856C87.5333 75.248 86.8293 74.944 85.8053 74.944C84.7813 74.944 84.0693 75.248 83.6693 75.856C83.2853 76.464 83.0933 77.496 83.0933 78.952C83.0933 80.408 83.2773 81.456 83.6453 82.096ZM93.7559 85V73H96.3479V74.44C97.7079 73.56 99.0679 72.992 100.428 72.736V75.352C99.0519 75.624 97.8759 75.976 96.8999 76.408L96.3719 76.624V85H93.7559ZM108.884 75.232H105.572V80.512C105.572 81.488 105.644 82.136 105.788 82.456C105.932 82.776 106.3 82.936 106.892 82.936L108.86 82.864L108.98 84.952C107.908 85.16 107.092 85.264 106.532 85.264C105.172 85.264 104.236 84.952 103.724 84.328C103.228 83.704 102.98 82.528 102.98 80.8V75.232H101.444V73H102.98V69.52H105.572V73H108.884V75.232ZM116.615 85V68.56H126.815V70.888H119.279V76.432H125.543V78.76H119.279V85H116.615ZM129.006 85V73H131.622V85H129.006ZM129.006 70.96V68.2H131.622V70.96H129.006ZM134.939 85V68.008H137.555V85H134.939ZM149.409 82.84L150.081 82.768L150.129 84.712C148.305 85.08 146.689 85.264 145.281 85.264C143.505 85.264 142.225 84.776 141.441 83.8C140.673 82.824 140.289 81.264 140.289 79.12C140.289 74.864 142.025 72.736 145.497 72.736C148.857 72.736 150.537 74.568 150.537 78.232L150.369 80.104H142.929C142.945 81.096 143.161 81.824 143.577 82.288C143.993 82.752 144.769 82.984 145.905 82.984C147.041 82.984 148.209 82.936 149.409 82.84ZM147.969 78.088C147.969 76.904 147.777 76.08 147.393 75.616C147.025 75.136 146.393 74.896 145.497 74.896C144.601 74.896 143.945 75.144 143.529 75.64C143.129 76.136 142.921 76.952 142.905 78.088H147.969Z" fill="#1F2633"/>
<circle cx="95.5" cy="22.5" r="22.5" fill="#2DA5FC" fill-opacity="0.5"/>
<path d="M92.5 30L87.5 30C86.9477 30 86.5 29.5523 86.5 29L86.5 13C86.5 12.4477 86.9477 12 87.5 12L97 12M97 12L101.5 16.5M97 12L97 16.5L101.5 16.5M101.5 16.5L101.5 21" stroke="black" stroke-width="2"/>
<line x1="94" y1="27.5" x2="103" y2="27.5" stroke="black" stroke-width="2"/>
<line x1="98" y1="22.5" x2="98" y2="31.5" stroke="black" stroke-width="2"/>
</svg>
