<svg width="87" height="21" viewBox="0 0 87 21" fill="none" xmlns="http://www.w3.org/2000/svg">
<path opacity="0.8" d="M38.388 16H31.53V3.544H32.916V14.758H38.388V16ZM39.4254 11.482C39.4254 9.838 39.7194 8.65 40.3074 7.918C40.8954 7.186 41.8854 6.82 43.2774 6.82C44.6814 6.82 45.6714 7.186 46.2474 7.918C46.8354 8.65 47.1294 9.838 47.1294 11.482C47.1294 13.126 46.8534 14.32 46.3014 15.064C45.7494 15.808 44.7414 16.18 43.2774 16.18C41.8134 16.18 40.8054 15.808 40.2534 15.064C39.7014 14.32 39.4254 13.126 39.4254 11.482ZM40.8114 11.464C40.8114 12.772 40.9674 13.69 41.2794 14.218C41.6034 14.746 42.2694 15.01 43.2774 15.01C44.2974 15.01 44.9634 14.752 45.2754 14.236C45.5874 13.708 45.7434 12.784 45.7434 11.464C45.7434 10.144 45.5694 9.238 45.2214 8.746C44.8734 8.242 44.2254 7.99 43.2774 7.99C42.3414 7.99 41.6934 8.242 41.3334 8.746C40.9854 9.238 40.8114 10.144 40.8114 11.464ZM52.8052 20.23C51.3652 20.23 50.3572 20.032 49.7812 19.636C49.2172 19.252 48.9352 18.544 48.9352 17.512C48.9352 17.02 49.0432 16.618 49.2592 16.306C49.4752 16.006 49.8412 15.664 50.3572 15.28C50.0212 15.052 49.8532 14.638 49.8532 14.038C49.8532 13.834 50.0032 13.456 50.3032 12.904L50.4652 12.616C49.5172 12.184 49.0432 11.278 49.0432 9.898C49.0432 7.846 50.1652 6.82 52.4092 6.82C52.9852 6.82 53.5192 6.88 54.0112 7L54.2812 7.054L56.9452 6.982V8.134L55.2352 8.098C55.6312 8.494 55.8292 9.094 55.8292 9.898C55.8292 11.026 55.5472 11.818 54.9832 12.274C54.4312 12.718 53.5552 12.94 52.3552 12.94C52.0312 12.94 51.7372 12.916 51.4732 12.868C51.2572 13.396 51.1492 13.738 51.1492 13.894C51.1492 14.266 51.2632 14.5 51.4912 14.596C51.7192 14.68 52.4092 14.722 53.5612 14.722C54.7132 14.722 55.5412 14.902 56.0452 15.262C56.5492 15.622 56.8012 16.324 56.8012 17.368C56.8012 19.276 55.4692 20.23 52.8052 20.23ZM50.2672 17.404C50.2672 18.04 50.4412 18.478 50.7892 18.718C51.1492 18.97 51.8032 19.096 52.7512 19.096C53.7112 19.096 54.3952 18.964 54.8032 18.7C55.2232 18.436 55.4332 17.992 55.4332 17.368C55.4332 16.756 55.2832 16.36 54.9832 16.18C54.6832 16 54.0952 15.91 53.2192 15.91L51.2752 15.82C50.8792 16.108 50.6092 16.36 50.4652 16.576C50.3332 16.792 50.2672 17.068 50.2672 17.404ZM50.3932 9.898C50.3932 10.606 50.5492 11.11 50.8612 11.41C51.1852 11.71 51.7132 11.86 52.4452 11.86C53.1772 11.86 53.6992 11.71 54.0112 11.41C54.3232 11.11 54.4792 10.606 54.4792 9.898C54.4792 9.178 54.3232 8.668 54.0112 8.368C53.6992 8.068 53.1772 7.918 52.4452 7.918C51.7132 7.918 51.1852 8.074 50.8612 8.386C50.5492 8.686 50.3932 9.19 50.3932 9.898ZM62.1363 11.482C62.1363 9.838 62.4303 8.65 63.0183 7.918C63.6063 7.186 64.5963 6.82 65.9883 6.82C67.3923 6.82 68.3823 7.186 68.9583 7.918C69.5463 8.65 69.8403 9.838 69.8403 11.482C69.8403 13.126 69.5643 14.32 69.0123 15.064C68.4603 15.808 67.4523 16.18 65.9883 16.18C64.5243 16.18 63.5163 15.808 62.9643 15.064C62.4123 14.32 62.1363 13.126 62.1363 11.482ZM63.5223 11.464C63.5223 12.772 63.6783 13.69 63.9903 14.218C64.3143 14.746 64.9803 15.01 65.9883 15.01C67.0083 15.01 67.6743 14.752 67.9863 14.236C68.2983 13.708 68.4543 12.784 68.4543 11.464C68.4543 10.144 68.2803 9.238 67.9323 8.746C67.5843 8.242 66.9363 7.99 65.9883 7.99C65.0523 7.99 64.4043 8.242 64.0443 8.746C63.6963 9.238 63.5223 10.144 63.5223 11.464ZM77.6581 7H79.0081V16H77.6581V15.37C76.7581 15.91 75.8701 16.18 74.9941 16.18C73.7701 16.18 72.9541 15.862 72.5461 15.226C72.1501 14.59 71.9521 13.414 71.9521 11.698V7H73.3021V11.68C73.3021 12.988 73.4161 13.864 73.6441 14.308C73.8721 14.752 74.3881 14.974 75.1921 14.974C75.5881 14.974 75.9901 14.92 76.3981 14.812C76.8061 14.692 77.1181 14.578 77.3341 14.47L77.6581 14.308V7ZM86.2666 8.17H83.4046V12.472C83.4046 13.504 83.4766 14.182 83.6206 14.506C83.7766 14.83 84.1366 14.992 84.7006 14.992L86.3026 14.884L86.3926 16C85.5886 16.132 84.9766 16.198 84.5566 16.198C83.6206 16.198 82.9726 15.97 82.6126 15.514C82.2526 15.058 82.0726 14.188 82.0726 12.904V8.17H80.7946V7H82.0726V4.246H83.4046V7H86.2666V8.17Z" fill="black"/>
<path d="M14.7083 5.33333L13.2396 6.80208L14.8854 8.45833H6.375V10.5417H14.8854L13.2396 12.1875L14.7083 13.6667L18.875 9.5L14.7083 5.33333ZM2.20833 2.20833H9.5V0.125H2.20833C1.0625 0.125 0.125 1.0625 0.125 2.20833V16.7917C0.125 17.9375 1.0625 18.875 2.20833 18.875H9.5V16.7917H2.20833V2.20833Z" fill="black"/>
</svg>
