<svg width="183" height="223" viewBox="0 0 183 223" fill="none" xmlns="http://www.w3.org/2000/svg">
<path d="M18.52 28H3.16V0.599998H7.6V24.04H18.52V28ZM22.7044 10.16C24.091 8.42667 26.3844 7.56 29.5844 7.56C32.7844 7.56 35.0644 8.42667 36.4244 10.16C37.811 11.8933 38.5044 14.4933 38.5044 17.96C38.5044 21.4267 37.8377 24.04 36.5044 25.8C35.171 27.56 32.8644 28.44 29.5844 28.44C26.3044 28.44 23.9977 27.56 22.6644 25.8C21.331 24.04 20.6644 21.4267 20.6644 17.96C20.6644 14.4933 21.3444 11.8933 22.7044 10.16ZM25.9844 23.16C26.5977 24.2267 27.7977 24.76 29.5844 24.76C31.371 24.76 32.571 24.2267 33.1844 23.16C33.7977 22.0933 34.1044 20.3467 34.1044 17.92C34.1044 15.4933 33.771 13.7733 33.1044 12.76C32.4644 11.7467 31.291 11.24 29.5844 11.24C27.8777 11.24 26.691 11.7467 26.0244 12.76C25.3844 13.7733 25.0644 15.4933 25.0644 17.92C25.0644 20.3467 25.371 22.0933 25.9844 23.16ZM60.3153 30.72C60.3153 35.0933 57.1553 37.28 50.8353 37.28C47.7953 37.28 45.542 36.8667 44.0753 36.04C42.6086 35.2133 41.8753 33.7067 41.8753 31.52C41.8753 30.5333 42.1153 29.68 42.5953 28.96C43.0753 28.2667 43.8486 27.5067 44.9153 26.68C44.0353 26.0933 43.5953 25.12 43.5953 23.76C43.5953 23.2267 43.9553 22.36 44.6753 21.16L45.0353 20.56C43.1153 19.4133 42.1553 17.4133 42.1553 14.56C42.1553 12.16 42.8753 10.4 44.3153 9.28C45.7553 8.16 47.702 7.6 50.1553 7.6C51.3286 7.6 52.4886 7.73333 53.6353 8L54.2353 8.12L60.4353 7.96V11.48L57.1153 11.28C57.8353 12.2133 58.1953 13.3067 58.1953 14.56C58.1953 17.1733 57.5286 18.9867 56.1953 20C54.8886 20.9867 52.8353 21.48 50.0353 21.48C49.342 21.48 48.7553 21.4267 48.2753 21.32C47.902 22.2267 47.7153 22.9333 47.7153 23.44C47.7153 23.92 47.9553 24.2533 48.4353 24.44C48.942 24.6267 50.142 24.7333 52.0353 24.76C55.2086 24.7867 57.382 25.2133 58.5553 26.04C59.7286 26.8667 60.3153 28.4267 60.3153 30.72ZM46.1553 31.12C46.1553 32.0533 46.5286 32.72 47.2753 33.12C48.022 33.52 49.302 33.72 51.1153 33.72C54.342 33.72 55.9553 32.8 55.9553 30.96C55.9553 29.92 55.662 29.2533 55.0753 28.96C54.5153 28.6933 53.382 28.5467 51.6753 28.52L47.7553 28.28C47.1686 28.76 46.7553 29.2 46.5153 29.6C46.2753 30.0267 46.1553 30.5333 46.1553 31.12ZM46.4753 14.56C46.4753 15.7867 46.7686 16.6933 47.3553 17.28C47.942 17.84 48.8886 18.12 50.1953 18.12C51.502 18.12 52.4353 17.84 52.9953 17.28C53.582 16.6933 53.8753 15.7867 53.8753 14.56C53.8753 13.3333 53.582 12.44 52.9953 11.88C52.4086 11.2933 51.462 11 50.1553 11C47.702 11 46.4753 12.1867 46.4753 14.56ZM64.9309 10.16C66.3176 8.42667 68.6109 7.56 71.8109 7.56C75.0109 7.56 77.2909 8.42667 78.6509 10.16C80.0376 11.8933 80.7309 14.4933 80.7309 17.96C80.7309 21.4267 80.0643 24.04 78.7309 25.8C77.3976 27.56 75.0909 28.44 71.8109 28.44C68.5309 28.44 66.2243 27.56 64.8909 25.8C63.5576 24.04 62.8909 21.4267 62.8909 17.96C62.8909 14.4933 63.5709 11.8933 64.9309 10.16ZM68.2109 23.16C68.8243 24.2267 70.0243 24.76 71.8109 24.76C73.5976 24.76 74.7976 24.2267 75.4109 23.16C76.0243 22.0933 76.3309 20.3467 76.3309 17.92C76.3309 15.4933 75.9976 13.7733 75.3309 12.76C74.6909 11.7467 73.5176 11.24 71.8109 11.24C70.1043 11.24 68.9176 11.7467 68.2509 12.76C67.6109 13.7733 67.2909 15.4933 67.2909 17.92C67.2909 20.3467 67.5976 22.0933 68.2109 23.16Z" fill="#0884FF"/>
<rect y="158" width="183" height="65" rx="6" fill="#2DA5FC"/>
<path d="M167 175L167 207" stroke="white" stroke-width="2" stroke-linecap="round"/>
<path d="M53.688 116H49.422V103.67H53.688C55.584 103.67 56.88 104.15 57.576 105.11C58.272 106.07 58.62 107.576 58.62 109.628C58.62 110.672 58.548 111.56 58.404 112.292C58.272 113.012 58.032 113.666 57.684 114.254C57 115.418 55.668 116 53.688 116ZM56.55 109.628C56.55 108.14 56.364 107.066 55.992 106.406C55.62 105.746 54.852 105.416 53.688 105.416H51.42V114.236H53.688C54.876 114.236 55.668 113.798 56.064 112.922C56.256 112.478 56.382 112.004 56.442 111.5C56.514 110.996 56.55 110.372 56.55 109.628ZM67.3793 109.772V113.876C67.3913 114.14 67.4573 114.338 67.5773 114.47C67.7093 114.59 67.9073 114.668 68.1713 114.704L68.1173 116.198C67.0853 116.198 66.2873 115.976 65.7233 115.532C64.7633 115.976 63.7973 116.198 62.8253 116.198C61.0373 116.198 60.1433 115.244 60.1433 113.336C60.1433 112.424 60.3833 111.764 60.8633 111.356C61.3553 110.948 62.1053 110.702 63.1133 110.618L65.4353 110.42V109.772C65.4353 109.292 65.3273 108.956 65.1113 108.764C64.9073 108.572 64.6013 108.476 64.1933 108.476C63.4253 108.476 62.4653 108.524 61.3133 108.62L60.7373 108.656L60.6653 107.27C61.9733 106.958 63.1733 106.802 64.2653 106.802C65.3693 106.802 66.1613 107.042 66.6413 107.522C67.1333 107.99 67.3793 108.74 67.3793 109.772ZM63.3473 112.004C62.5193 112.076 62.1053 112.526 62.1053 113.354C62.1053 114.182 62.4713 114.596 63.2033 114.596C63.8033 114.596 64.4393 114.5 65.1113 114.308L65.4353 114.2V111.806L63.3473 112.004ZM76.0883 108.854C74.6723 108.662 73.6463 108.566 73.0103 108.566C72.3743 108.566 71.9303 108.644 71.6783 108.8C71.4383 108.944 71.3183 109.178 71.3183 109.502C71.3183 109.826 71.4503 110.054 71.7143 110.186C71.9903 110.318 72.6263 110.474 73.6223 110.654C74.6303 110.822 75.3443 111.092 75.7643 111.464C76.1843 111.836 76.3943 112.496 76.3943 113.444C76.3943 114.392 76.0883 115.088 75.4763 115.532C74.8763 115.976 73.9943 116.198 72.8303 116.198C72.0983 116.198 71.1743 116.096 70.0583 115.892L69.5003 115.802L69.5723 114.164C71.0123 114.356 72.0503 114.452 72.6863 114.452C73.3223 114.452 73.7723 114.374 74.0363 114.218C74.3123 114.062 74.4503 113.804 74.4503 113.444C74.4503 113.084 74.3183 112.838 74.0543 112.706C73.8023 112.562 73.1843 112.412 72.2003 112.256C71.2283 112.088 70.5143 111.83 70.0583 111.482C69.6023 111.134 69.3743 110.498 69.3743 109.574C69.3743 108.65 69.6863 107.96 70.3103 107.504C70.9463 107.048 71.7563 106.82 72.7403 106.82C73.5083 106.82 74.4503 106.916 75.5663 107.108L76.1243 107.216L76.0883 108.854ZM80.2418 116H78.2798V103.256H80.2418V107.468C81.1298 107.024 81.9518 106.802 82.7078 106.802C83.9078 106.802 84.7238 107.144 85.1558 107.828C85.5998 108.5 85.8218 109.616 85.8218 111.176V116H83.8598V111.23C83.8598 110.258 83.7578 109.568 83.5538 109.16C83.3498 108.752 82.9178 108.548 82.2578 108.548C81.6818 108.548 81.1058 108.644 80.5298 108.836L80.2418 108.944V116ZM92.3 106.802C93.536 106.802 94.424 107.15 94.964 107.846C95.516 108.53 95.792 109.748 95.792 111.5C95.792 113.252 95.468 114.476 94.82 115.172C94.172 115.856 93.032 116.198 91.4 116.198C90.836 116.198 89.942 116.144 88.718 116.036L88.106 115.982V103.256H90.05V107.342C90.878 106.982 91.628 106.802 92.3 106.802ZM91.4 114.452C92.36 114.452 92.996 114.23 93.308 113.786C93.632 113.33 93.794 112.562 93.794 111.482C93.794 110.402 93.656 109.646 93.38 109.214C93.116 108.77 92.678 108.548 92.066 108.548C91.49 108.548 90.914 108.638 90.338 108.818L90.05 108.908V114.38C90.71 114.428 91.16 114.452 91.4 114.452ZM98.2424 107.972C98.8664 107.192 99.8984 106.802 101.338 106.802C102.778 106.802 103.804 107.192 104.416 107.972C105.04 108.752 105.352 109.922 105.352 111.482C105.352 113.042 105.052 114.218 104.452 115.01C103.852 115.802 102.814 116.198 101.338 116.198C99.8624 116.198 98.8244 115.802 98.2244 115.01C97.6244 114.218 97.3244 113.042 97.3244 111.482C97.3244 109.922 97.6304 108.752 98.2424 107.972ZM99.7184 113.822C99.9944 114.302 100.534 114.542 101.338 114.542C102.142 114.542 102.682 114.302 102.958 113.822C103.234 113.342 103.372 112.556 103.372 111.464C103.372 110.372 103.222 109.598 102.922 109.142C102.634 108.686 102.106 108.458 101.338 108.458C100.57 108.458 100.036 108.686 99.7364 109.142C99.4484 109.598 99.3044 110.372 99.3044 111.464C99.3044 112.556 99.4424 113.342 99.7184 113.822ZM113.961 109.772V113.876C113.973 114.14 114.039 114.338 114.159 114.47C114.291 114.59 114.489 114.668 114.753 114.704L114.699 116.198C113.667 116.198 112.869 115.976 112.305 115.532C111.345 115.976 110.379 116.198 109.407 116.198C107.619 116.198 106.725 115.244 106.725 113.336C106.725 112.424 106.965 111.764 107.445 111.356C107.937 110.948 108.687 110.702 109.695 110.618L112.017 110.42V109.772C112.017 109.292 111.909 108.956 111.693 108.764C111.489 108.572 111.183 108.476 110.775 108.476C110.007 108.476 109.047 108.524 107.895 108.62L107.319 108.656L107.247 107.27C108.555 106.958 109.755 106.802 110.847 106.802C111.951 106.802 112.743 107.042 113.223 107.522C113.715 107.99 113.961 108.74 113.961 109.772ZM109.929 112.004C109.101 112.076 108.687 112.526 108.687 113.354C108.687 114.182 109.053 114.596 109.785 114.596C110.385 114.596 111.021 114.5 111.693 114.308L112.017 114.2V111.806L109.929 112.004ZM116.424 116V107H118.368V108.08C119.388 107.42 120.408 106.994 121.428 106.802V108.764C120.396 108.968 119.514 109.232 118.782 109.556L118.386 109.718V116H116.424ZM130.184 103.256V116H128.24V115.532C127.364 115.976 126.56 116.198 125.828 116.198C124.652 116.198 123.788 115.844 123.236 115.136C122.696 114.428 122.426 113.24 122.426 111.572C122.426 109.904 122.726 108.692 123.326 107.936C123.938 107.18 124.886 106.802 126.17 106.802C126.602 106.802 127.286 106.88 128.222 107.036V103.256H130.184ZM127.916 114.128L128.222 114.002V108.674C127.502 108.554 126.836 108.494 126.224 108.494C125.012 108.494 124.406 109.502 124.406 111.518C124.406 112.622 124.544 113.39 124.82 113.822C125.108 114.242 125.558 114.452 126.17 114.452C126.782 114.452 127.364 114.344 127.916 114.128Z" fill="#181818"/>
<path d="M35 103V105H31V103H35ZM25 103V109H21V103H25ZM35 111V117H31V111H35ZM25 115V117H21V115H25ZM37 101H29V107H37V101ZM27 101H19V111H27V101ZM37 109H29V119H37V109ZM27 113H19V119H27V113Z" fill="#181818"/>
<path opacity="0.8" d="M44.234 186.452V184.67H53.234V186.452H49.76V197H47.744V186.452H44.234ZM53.7248 188.972C54.3488 188.192 55.3808 187.802 56.8208 187.802C58.2608 187.802 59.2868 188.192 59.8988 188.972C60.5228 189.752 60.8348 190.922 60.8348 192.482C60.8348 194.042 60.5348 195.218 59.9348 196.01C59.3348 196.802 58.2968 197.198 56.8208 197.198C55.3448 197.198 54.3068 196.802 53.7068 196.01C53.1068 195.218 52.8068 194.042 52.8068 192.482C52.8068 190.922 53.1128 189.752 53.7248 188.972ZM55.2008 194.822C55.4768 195.302 56.0168 195.542 56.8208 195.542C57.6248 195.542 58.1648 195.302 58.4408 194.822C58.7168 194.342 58.8548 193.556 58.8548 192.464C58.8548 191.372 58.7048 190.598 58.4048 190.142C58.1168 189.686 57.5888 189.458 56.8208 189.458C56.0528 189.458 55.5188 189.686 55.2188 190.142C54.9308 190.598 54.7868 191.372 54.7868 192.464C54.7868 193.556 54.9248 194.342 55.2008 194.822ZM67.6257 189.674H65.1417V193.634C65.1417 194.366 65.1957 194.852 65.3037 195.092C65.4117 195.332 65.6877 195.452 66.1317 195.452L67.6077 195.398L67.6977 196.964C66.8937 197.12 66.2817 197.198 65.8617 197.198C64.8417 197.198 64.1397 196.964 63.7557 196.496C63.3837 196.028 63.1977 195.146 63.1977 193.85V189.674H62.0457V188H63.1977V185.39H65.1417V188H67.6257V189.674ZM75.8949 190.772V194.876C75.9069 195.14 75.9729 195.338 76.0929 195.47C76.2249 195.59 76.4229 195.668 76.6869 195.704L76.6329 197.198C75.6009 197.198 74.8029 196.976 74.2389 196.532C73.2789 196.976 72.3129 197.198 71.3409 197.198C69.5529 197.198 68.6589 196.244 68.6589 194.336C68.6589 193.424 68.8989 192.764 69.3789 192.356C69.8709 191.948 70.6209 191.702 71.6289 191.618L73.9509 191.42V190.772C73.9509 190.292 73.8429 189.956 73.6269 189.764C73.4229 189.572 73.1169 189.476 72.7089 189.476C71.9409 189.476 70.9809 189.524 69.8289 189.62L69.2529 189.656L69.1809 188.27C70.4889 187.958 71.6889 187.802 72.7809 187.802C73.8849 187.802 74.6769 188.042 75.1569 188.522C75.6489 188.99 75.8949 189.74 75.8949 190.772ZM71.8629 193.004C71.0349 193.076 70.6209 193.526 70.6209 194.354C70.6209 195.182 70.9869 195.596 71.7189 195.596C72.3189 195.596 72.9549 195.5 73.6269 195.308L73.9509 195.2V192.806L71.8629 193.004ZM78.4659 197V184.256H80.4279V197H78.4659ZM90.2317 187.802C90.8677 187.802 91.6177 187.886 92.4817 188.054L92.9317 188.144L92.8597 189.692C91.9117 189.596 91.2097 189.548 90.7537 189.548C89.8417 189.548 89.2297 189.752 88.9177 190.16C88.6057 190.568 88.4497 191.336 88.4497 192.464C88.4497 193.592 88.5997 194.372 88.8997 194.804C89.1997 195.236 89.8237 195.452 90.7717 195.452L92.8777 195.308L92.9317 196.874C91.7197 197.09 90.8077 197.198 90.1957 197.198C88.8277 197.198 87.8617 196.832 87.2977 196.1C86.7457 195.356 86.4697 194.144 86.4697 192.464C86.4697 190.784 86.7637 189.59 87.3517 188.882C87.9397 188.162 88.8997 187.802 90.2317 187.802ZM95.2267 188.972C95.8507 188.192 96.8827 187.802 98.3227 187.802C99.7627 187.802 100.789 188.192 101.401 188.972C102.025 189.752 102.337 190.922 102.337 192.482C102.337 194.042 102.037 195.218 101.437 196.01C100.837 196.802 99.7987 197.198 98.3227 197.198C96.8467 197.198 95.8087 196.802 95.2087 196.01C94.6087 195.218 94.3087 194.042 94.3087 192.482C94.3087 190.922 94.6147 189.752 95.2267 188.972ZM96.7027 194.822C96.9787 195.302 97.5187 195.542 98.3227 195.542C99.1267 195.542 99.6667 195.302 99.9427 194.822C100.219 194.342 100.357 193.556 100.357 192.464C100.357 191.372 100.207 190.598 99.9067 190.142C99.6187 189.686 99.0907 189.458 98.3227 189.458C97.5547 189.458 97.0207 189.686 96.7207 190.142C96.4327 190.598 96.2887 191.372 96.2887 192.464C96.2887 193.556 96.4267 194.342 96.7027 194.822ZM106.248 197H104.286V188H106.23V188.558C107.106 188.054 107.934 187.802 108.714 187.802C109.914 187.802 110.73 188.144 111.162 188.828C111.606 189.5 111.828 190.616 111.828 192.176V197H109.884V192.23C109.884 191.258 109.776 190.568 109.56 190.16C109.356 189.752 108.93 189.548 108.282 189.548C107.67 189.548 107.082 189.668 106.518 189.908L106.248 190.016V197ZM118.954 189.674H116.47V193.634C116.47 194.366 116.524 194.852 116.632 195.092C116.74 195.332 117.016 195.452 117.46 195.452L118.936 195.398L119.026 196.964C118.222 197.12 117.61 197.198 117.19 197.198C116.17 197.198 115.468 196.964 115.084 196.496C114.712 196.028 114.526 195.146 114.526 193.85V189.674H113.374V188H114.526V185.39H116.47V188H118.954V189.674ZM127.223 190.772V194.876C127.235 195.14 127.301 195.338 127.421 195.47C127.553 195.59 127.751 195.668 128.015 195.704L127.961 197.198C126.929 197.198 126.131 196.976 125.567 196.532C124.607 196.976 123.641 197.198 122.669 197.198C120.881 197.198 119.987 196.244 119.987 194.336C119.987 193.424 120.227 192.764 120.707 192.356C121.199 191.948 121.949 191.702 122.957 191.618L125.279 191.42V190.772C125.279 190.292 125.171 189.956 124.955 189.764C124.751 189.572 124.445 189.476 124.037 189.476C123.269 189.476 122.309 189.524 121.157 189.62L120.581 189.656L120.509 188.27C121.817 187.958 123.017 187.802 124.109 187.802C125.213 187.802 126.005 188.042 126.485 188.522C126.977 188.99 127.223 189.74 127.223 190.772ZM123.191 193.004C122.363 193.076 121.949 193.526 121.949 194.354C121.949 195.182 122.315 195.596 123.047 195.596C123.647 195.596 124.283 195.5 124.955 195.308L125.279 195.2V192.806L123.191 193.004ZM133.052 187.802C133.688 187.802 134.438 187.886 135.302 188.054L135.752 188.144L135.68 189.692C134.732 189.596 134.03 189.548 133.574 189.548C132.662 189.548 132.05 189.752 131.738 190.16C131.426 190.568 131.27 191.336 131.27 192.464C131.27 193.592 131.42 194.372 131.72 194.804C132.02 195.236 132.644 195.452 133.592 195.452L135.698 195.308L135.752 196.874C134.54 197.09 133.628 197.198 133.016 197.198C131.648 197.198 130.682 196.832 130.118 196.1C129.566 195.356 129.29 194.144 129.29 192.464C129.29 190.784 129.584 189.59 130.172 188.882C130.76 188.162 131.72 187.802 133.052 187.802ZM142.491 189.674H140.007V193.634C140.007 194.366 140.061 194.852 140.169 195.092C140.277 195.332 140.553 195.452 140.997 195.452L142.473 195.398L142.563 196.964C141.759 197.12 141.147 197.198 140.727 197.198C139.707 197.198 139.005 196.964 138.621 196.496C138.249 196.028 138.063 195.146 138.063 193.85V189.674H136.911V188H138.063V185.39H140.007V188H142.491V189.674ZM150.346 189.854C148.93 189.662 147.904 189.566 147.268 189.566C146.632 189.566 146.188 189.644 145.936 189.8C145.696 189.944 145.576 190.178 145.576 190.502C145.576 190.826 145.708 191.054 145.972 191.186C146.248 191.318 146.884 191.474 147.88 191.654C148.888 191.822 149.602 192.092 150.022 192.464C150.442 192.836 150.652 193.496 150.652 194.444C150.652 195.392 150.346 196.088 149.734 196.532C149.134 196.976 148.252 197.198 147.088 197.198C146.356 197.198 145.432 197.096 144.316 196.892L143.758 196.802L143.83 195.164C145.27 195.356 146.308 195.452 146.944 195.452C147.58 195.452 148.03 195.374 148.294 195.218C148.57 195.062 148.708 194.804 148.708 194.444C148.708 194.084 148.576 193.838 148.312 193.706C148.06 193.562 147.442 193.412 146.458 193.256C145.486 193.088 144.772 192.83 144.316 192.482C143.86 192.134 143.632 191.498 143.632 190.574C143.632 189.65 143.944 188.96 144.568 188.504C145.204 188.048 146.014 187.82 146.998 187.82C147.766 187.82 148.708 187.916 149.824 188.108L150.382 188.216L150.346 189.854Z" fill="white"/>
<path d="M34 183H18C16.9 183 16 183.9 16 185V197C16 198.1 16.9 199 18 199H34C35.1 199 36 198.1 36 197V185C36 183.9 35.1 183 34 183ZM34 197H18V185H34V197ZM18 179H34V181H18V179ZM18 201H34V203H18V201ZM26 191C27.38 191 28.5 189.88 28.5 188.5C28.5 187.12 27.38 186 26 186C24.62 186 23.5 187.12 23.5 188.5C23.5 189.88 24.62 191 26 191ZM26 187.5C26.55 187.5 27 187.95 27 188.5C27 189.05 26.55 189.5 26 189.5C25.45 189.5 25 189.05 25 188.5C25 187.95 25.45 187.5 26 187.5ZM31 194.99C31 192.9 27.69 192 26 192C24.31 192 21 192.9 21 194.99V196H31V194.99ZM22.81 194.5C23.42 193.98 24.84 193.5 26 193.5C27.17 193.5 28.59 193.98 29.2 194.5H22.81Z" fill="white"/>
</svg>
