<svg width="193" height="24" viewBox="0 0 193 24" fill="none" xmlns="http://www.w3.org/2000/svg">
<path opacity="0.8" d="M0.416 4.248V1.08H16.416V4.248H10.24V23H6.656V4.248H0.416ZM17.2885 8.728C18.3978 7.34133 20.2325 6.648 22.7925 6.648C25.3525 6.648 27.1765 7.34133 28.2645 8.728C29.3738 10.1147 29.9285 12.1947 29.9285 14.968C29.9285 17.7413 29.3952 19.832 28.3285 21.24C27.2618 22.648 25.4165 23.352 22.7925 23.352C20.1685 23.352 18.3232 22.648 17.2565 21.24C16.1898 19.832 15.6565 17.7413 15.6565 14.968C15.6565 12.1947 16.2005 10.1147 17.2885 8.728ZM19.9125 19.128C20.4032 19.9813 21.3632 20.408 22.7925 20.408C24.2218 20.408 25.1818 19.9813 25.6725 19.128C26.1632 18.2747 26.4085 16.8773 26.4085 14.936C26.4085 12.9947 26.1418 11.6187 25.6085 10.808C25.0965 9.99733 24.1578 9.592 22.7925 9.592C21.4272 9.592 20.4778 9.99733 19.9445 10.808C19.4325 11.6187 19.1765 12.9947 19.1765 14.936C19.1765 16.8773 19.4218 18.2747 19.9125 19.128ZM42.0013 9.976H37.5853V17.016C37.5853 18.3173 37.6813 19.1813 37.8733 19.608C38.0653 20.0347 38.5559 20.248 39.3453 20.248L41.9693 20.152L42.1293 22.936C40.6999 23.2133 39.6119 23.352 38.8653 23.352C37.0519 23.352 35.8039 22.936 35.1213 22.104C34.4599 21.272 34.1293 19.704 34.1293 17.4V9.976H32.0813V7H34.1293V2.36H37.5853V7H42.0013V9.976ZM56.702 11.928V19.224C56.7233 19.6933 56.8407 20.0453 57.054 20.28C57.2887 20.4933 57.6407 20.632 58.11 20.696L58.014 23.352C56.1793 23.352 54.7607 22.9573 53.758 22.168C52.0513 22.9573 50.334 23.352 48.606 23.352C45.4273 23.352 43.838 21.656 43.838 18.264C43.838 16.6427 44.2647 15.4693 45.118 14.744C45.9927 14.0187 47.326 13.5813 49.118 13.432L53.246 13.08V11.928C53.246 11.0747 53.054 10.4773 52.67 10.136C52.3073 9.79467 51.7633 9.624 51.038 9.624C49.6727 9.624 47.966 9.70933 45.918 9.88L44.894 9.944L44.766 7.48C47.0913 6.92533 49.2247 6.648 51.166 6.648C53.1287 6.648 54.5367 7.07467 55.39 7.928C56.2647 8.76 56.702 10.0933 56.702 11.928ZM49.534 15.896C48.062 16.024 47.326 16.824 47.326 18.296C47.326 19.768 47.9767 20.504 49.278 20.504C50.3447 20.504 51.4753 20.3333 52.67 19.992L53.246 19.8V15.544L49.534 15.896ZM61.2728 23V0.344H64.7608V23H61.2728ZM83.9818 23.352C80.7818 23.352 78.6058 22.4667 77.4538 20.696C76.3231 18.9253 75.7578 16.0133 75.7578 11.96C75.7578 7.90667 76.3338 5.02667 77.4858 3.32C78.6378 1.592 80.8031 0.727999 83.9818 0.727999C85.8804 0.727999 87.9711 0.994666 90.2537 1.528L90.1258 4.408C88.2058 4.06667 86.2858 3.896 84.3658 3.896C82.4458 3.896 81.1444 4.472 80.4618 5.624C79.7791 6.75467 79.4378 8.89867 79.4378 12.056C79.4378 15.192 79.7684 17.336 80.4298 18.488C81.0911 19.6187 82.3818 20.184 84.3018 20.184C86.2218 20.184 88.1631 20.024 90.1258 19.704L90.2218 22.648C88.0244 23.1173 85.9444 23.352 83.9818 23.352ZM94.1948 8.728C95.3041 7.34133 97.1388 6.648 99.6988 6.648C102.259 6.648 104.083 7.34133 105.171 8.728C106.28 10.1147 106.835 12.1947 106.835 14.968C106.835 17.7413 106.301 19.832 105.235 21.24C104.168 22.648 102.323 23.352 99.6988 23.352C97.0748 23.352 95.2294 22.648 94.1628 21.24C93.0961 19.832 92.5628 17.7413 92.5628 14.968C92.5628 12.1947 93.1068 10.1147 94.1948 8.728ZM96.8188 19.128C97.3094 19.9813 98.2694 20.408 99.6988 20.408C101.128 20.408 102.088 19.9813 102.579 19.128C103.069 18.2747 103.315 16.8773 103.315 14.936C103.315 12.9947 103.048 11.6187 102.515 10.808C102.003 9.99733 101.064 9.592 99.6988 9.592C98.3334 9.592 97.3841 9.99733 96.8508 10.808C96.3388 11.6187 96.0828 12.9947 96.0828 14.936C96.0828 16.8773 96.3281 18.2747 96.8188 19.128ZM113.788 23H110.299V7H113.756V7.992C115.313 7.096 116.785 6.648 118.172 6.648C120.305 6.648 121.756 7.256 122.524 8.472C123.313 9.66667 123.708 11.6507 123.708 14.424V23H120.252V14.52C120.252 12.792 120.06 11.5653 119.676 10.84C119.313 10.1147 118.556 9.752 117.404 9.752C116.316 9.752 115.27 9.96533 114.268 10.392L113.788 10.584V23ZM136.376 9.976H131.96V17.016C131.96 18.3173 132.056 19.1813 132.248 19.608C132.44 20.0347 132.931 20.248 133.72 20.248L136.344 20.152L136.504 22.936C135.075 23.2133 133.987 23.352 133.24 23.352C131.427 23.352 130.179 22.936 129.496 22.104C128.835 21.272 128.504 19.704 128.504 17.4V9.976H126.456V7H128.504V2.36H131.96V7H136.376V9.976ZM151.077 11.928V19.224C151.098 19.6933 151.216 20.0453 151.429 20.28C151.664 20.4933 152.016 20.632 152.485 20.696L152.389 23.352C150.554 23.352 149.136 22.9573 148.133 22.168C146.426 22.9573 144.709 23.352 142.981 23.352C139.802 23.352 138.213 21.656 138.213 18.264C138.213 16.6427 138.64 15.4693 139.493 14.744C140.368 14.0187 141.701 13.5813 143.493 13.432L147.621 13.08V11.928C147.621 11.0747 147.429 10.4773 147.045 10.136C146.682 9.79467 146.138 9.624 145.413 9.624C144.048 9.624 142.341 9.70933 140.293 9.88L139.269 9.944L139.141 7.48C141.466 6.92533 143.6 6.648 145.541 6.648C147.504 6.648 148.912 7.07467 149.765 7.928C150.64 8.76 151.077 10.0933 151.077 11.928ZM143.909 15.896C142.437 16.024 141.701 16.824 141.701 18.296C141.701 19.768 142.352 20.504 143.653 20.504C144.72 20.504 145.85 20.3333 147.045 19.992L147.621 19.8V15.544L143.909 15.896ZM161.44 6.648C162.57 6.648 163.904 6.79733 165.44 7.096L166.24 7.256L166.112 10.008C164.426 9.83733 163.178 9.752 162.368 9.752C160.746 9.752 159.658 10.1147 159.104 10.84C158.549 11.5653 158.272 12.9307 158.272 14.936C158.272 16.9413 158.538 18.328 159.072 19.096C159.605 19.864 160.714 20.248 162.4 20.248L166.144 19.992L166.24 22.776C164.085 23.16 162.464 23.352 161.376 23.352C158.944 23.352 157.226 22.7013 156.224 21.4C155.242 20.0773 154.752 17.9227 154.752 14.936C154.752 11.9493 155.274 9.82667 156.32 8.568C157.365 7.288 159.072 6.648 161.44 6.648ZM178.22 9.976H173.804V17.016C173.804 18.3173 173.9 19.1813 174.092 19.608C174.284 20.0347 174.775 20.248 175.564 20.248L178.188 20.152L178.348 22.936C176.919 23.2133 175.831 23.352 175.084 23.352C173.271 23.352 172.023 22.936 171.34 22.104C170.679 21.272 170.348 19.704 170.348 17.4V9.976H168.3V7H170.348V2.36H173.804V7H178.22V9.976ZM192.185 10.296C189.667 9.95467 187.843 9.784 186.713 9.784C185.582 9.784 184.793 9.92267 184.345 10.2C183.918 10.456 183.705 10.872 183.705 11.448C183.705 12.024 183.939 12.4293 184.409 12.664C184.899 12.8987 186.03 13.176 187.801 13.496C189.593 13.7947 190.862 14.2747 191.609 14.936C192.355 15.5973 192.729 16.7707 192.729 18.456C192.729 20.1413 192.185 21.3787 191.097 22.168C190.03 22.9573 188.462 23.352 186.393 23.352C185.091 23.352 183.449 23.1707 181.465 22.808L180.473 22.648L180.601 19.736C183.161 20.0773 185.006 20.248 186.137 20.248C187.267 20.248 188.067 20.1093 188.537 19.832C189.027 19.5547 189.273 19.096 189.273 18.456C189.273 17.816 189.038 17.3787 188.569 17.144C188.121 16.888 187.022 16.6213 185.273 16.344C183.545 16.0453 182.275 15.5867 181.465 14.968C180.654 14.3493 180.249 13.2187 180.249 11.576C180.249 9.93333 180.803 8.70667 181.913 7.896C183.043 7.08533 184.483 6.68 186.233 6.68C187.598 6.68 189.273 6.85067 191.257 7.192L192.249 7.384L192.185 10.296Z" fill="#454545"/>
</svg>
