<svg width="124" height="34" viewBox="0 0 124 34" fill="none" xmlns="http://www.w3.org/2000/svg">
<path d="M0 5C0 2.23858 2.23858 0 5 0H119C121.761 0 124 2.23858 124 5V29C124 31.7614 121.761 34 119 34H5C2.23858 34 0 31.7614 0 29V5Z" fill="#2DA5FC"/>
<path d="M40.06 23.78C38.6867 24.06 37.4533 24.2 36.36 24.2C35.2667 24.2 34.38 24.0533 33.7 23.76C33.0333 23.4533 32.5133 22.9867 32.14 22.36C31.78 21.72 31.5267 20.9933 31.38 20.18C31.2467 19.3533 31.18 18.3267 31.18 17.1C31.18 15.8733 31.2467 14.8467 31.38 14.02C31.5267 13.18 31.78 12.44 32.14 11.8C32.5133 11.16 33.0333 10.6933 33.7 10.4C34.3667 10.1067 35.2333 9.96 36.3 9.96C37.3667 9.96 38.62 10.1067 40.06 10.4L40 11.7C38.6533 11.46 37.4533 11.34 36.4 11.34C34.9333 11.34 33.96 11.78 33.48 12.66C33.0133 13.5267 32.78 15.0133 32.78 17.12C32.78 18.1733 32.82 19.02 32.9 19.66C32.9933 20.3 33.1667 20.88 33.42 21.4C33.6733 21.9067 34.04 22.2733 34.52 22.5C35.0133 22.7133 35.7267 22.82 36.66 22.82C37.6067 22.82 38.72 22.7 40 22.46L40.06 23.78ZM49.3789 17.02V22.14C49.4189 22.6333 49.8056 22.9267 50.5389 23.02L50.4789 24.2C49.4256 24.2 48.6322 23.9333 48.0989 23.4C46.8989 23.9333 45.6989 24.2 44.4989 24.2C43.5789 24.2 42.8789 23.94 42.3989 23.42C41.9189 22.9 41.6789 22.1533 41.6789 21.18C41.6789 20.2067 41.9256 19.4933 42.4189 19.04C42.9122 18.5733 43.6856 18.2867 44.7389 18.18L47.8789 17.88V17.02C47.8789 16.34 47.7322 15.8533 47.4389 15.56C47.1456 15.2667 46.7456 15.12 46.2389 15.12C45.1722 15.12 44.0656 15.1867 42.9189 15.32L42.2989 15.38L42.2389 14.24C43.7056 13.9467 45.0056 13.8 46.1389 13.8C47.2722 13.8 48.0922 14.06 48.5989 14.58C49.1189 15.1 49.3789 15.9133 49.3789 17.02ZM43.2189 21.1C43.2189 22.3267 43.7256 22.94 44.7389 22.94C45.6456 22.94 46.5389 22.7867 47.4189 22.48L47.8789 22.32V19.02L44.9189 19.3C44.3189 19.3533 43.8856 19.5267 43.6189 19.82C43.3522 20.1133 43.2189 20.54 43.2189 21.1ZM53.8384 24H52.3384V14H53.8184V14.7C54.8984 14.1 55.9318 13.8 56.9184 13.8C58.2518 13.8 59.1451 14.16 59.5984 14.88C60.0651 15.6 60.2984 16.88 60.2984 18.72V24H58.8184V18.76C58.8184 17.3733 58.6784 16.4267 58.3984 15.92C58.1318 15.4 57.5518 15.14 56.6584 15.14C56.2318 15.14 55.7784 15.2067 55.2984 15.34C54.8318 15.46 54.4718 15.58 54.2184 15.7L53.8384 15.88V24ZM66.8206 13.8C67.2606 13.8 68.0073 13.88 69.0606 14.04L69.5406 14.1L69.4806 15.32C68.414 15.2 67.6273 15.14 67.1206 15.14C65.9873 15.14 65.214 15.4133 64.8006 15.96C64.4006 16.4933 64.2006 17.4933 64.2006 18.96C64.2006 20.4133 64.3873 21.4267 64.7606 22C65.1473 22.5733 65.9406 22.86 67.1406 22.86L69.5006 22.68L69.5606 23.92C68.3206 24.1067 67.394 24.2 66.7806 24.2C65.2206 24.2 64.1406 23.8 63.5406 23C62.954 22.2 62.6606 20.8533 62.6606 18.96C62.6606 17.0533 62.9806 15.72 63.6206 14.96C64.2606 14.1867 65.3273 13.8 66.8206 13.8ZM78.4744 22.76L79.0544 22.7L79.0944 23.88C77.5744 24.0933 76.2744 24.2 75.1944 24.2C73.7544 24.2 72.7344 23.7867 72.1344 22.96C71.5344 22.12 71.2344 20.82 71.2344 19.06C71.2344 15.5533 72.6277 13.8 75.4144 13.8C76.761 13.8 77.7677 14.18 78.4344 14.94C79.101 15.6867 79.4344 16.8667 79.4344 18.48L79.3544 19.62H72.7544C72.7544 20.7267 72.9544 21.5467 73.3544 22.08C73.7544 22.6133 74.4477 22.88 75.4344 22.88C76.4344 22.88 77.4477 22.84 78.4744 22.76ZM77.9344 18.42C77.9344 17.1933 77.7344 16.3267 77.3344 15.82C76.9477 15.3133 76.3077 15.06 75.4144 15.06C74.5344 15.06 73.8677 15.3267 73.4144 15.86C72.9744 16.3933 72.7477 17.2467 72.7344 18.42H77.9344ZM81.892 24V9.64H83.392V24H81.892Z" fill="white"/>
</svg>
