<svg width="173" height="103" viewBox="0 0 173 103" fill="none" xmlns="http://www.w3.org/2000/svg">
<path d="M6.584 102H0.896V85.56H6.584C9.112 85.56 10.84 86.2 11.768 87.48C12.696 88.76 13.16 90.768 13.16 93.504C13.16 94.896 13.064 96.08 12.872 97.056C12.696 98.016 12.376 98.888 11.912 99.672C11 101.224 9.224 102 6.584 102ZM10.4 93.504C10.4 91.52 10.152 90.088 9.656 89.208C9.16 88.328 8.136 87.888 6.584 87.888H3.56V99.648H6.584C8.168 99.648 9.224 99.064 9.752 97.896C10.008 97.304 10.176 96.672 10.256 96C10.352 95.328 10.4 94.496 10.4 93.504ZM24.503 99.84L25.175 99.768L25.223 101.712C23.399 102.08 21.783 102.264 20.375 102.264C18.599 102.264 17.319 101.776 16.535 100.8C15.767 99.824 15.383 98.264 15.383 96.12C15.383 91.864 17.119 89.736 20.591 89.736C23.951 89.736 25.631 91.568 25.631 95.232L25.463 97.104H18.023C18.039 98.096 18.255 98.824 18.671 99.288C19.087 99.752 19.863 99.984 20.999 99.984C22.135 99.984 23.303 99.936 24.503 99.84ZM23.063 95.088C23.063 93.904 22.871 93.08 22.487 92.616C22.119 92.136 21.487 91.896 20.591 91.896C19.695 91.896 19.039 92.144 18.623 92.64C18.223 93.136 18.015 93.952 17.999 95.088H23.063ZM28.2905 102V85.008H30.9065V102H28.2905ZM42.7608 99.84L43.4328 99.768L43.4808 101.712C41.6568 102.08 40.0408 102.264 38.6328 102.264C36.8568 102.264 35.5768 101.776 34.7928 100.8C34.0248 99.824 33.6408 98.264 33.6408 96.12C33.6408 91.864 35.3768 89.736 38.8488 89.736C42.2088 89.736 43.8888 91.568 43.8888 95.232L43.7208 97.104H36.2808C36.2968 98.096 36.5128 98.824 36.9288 99.288C37.3448 99.752 38.1208 99.984 39.2568 99.984C40.3928 99.984 41.5608 99.936 42.7608 99.84ZM41.3208 95.088C41.3208 93.904 41.1288 93.08 40.7448 92.616C40.3768 92.136 39.7448 91.896 38.8488 91.896C37.9528 91.896 37.2968 92.144 36.8808 92.64C36.4808 93.136 36.2728 93.952 36.2568 95.088H41.3208ZM52.8603 92.232H49.5483V97.512C49.5483 98.488 49.6203 99.136 49.7643 99.456C49.9083 99.776 50.2763 99.936 50.8683 99.936L52.8363 99.864L52.9563 101.952C51.8843 102.16 51.0683 102.264 50.5083 102.264C49.1483 102.264 48.2123 101.952 47.7003 101.328C47.2043 100.704 46.9563 99.528 46.9563 97.8V92.232H45.4203V90H46.9563V86.52H49.5483V90H52.8603V92.232ZM63.5499 99.84L64.2219 99.768L64.2699 101.712C62.4459 102.08 60.8299 102.264 59.4219 102.264C57.6459 102.264 56.3659 101.776 55.5819 100.8C54.8139 99.824 54.4299 98.264 54.4299 96.12C54.4299 91.864 56.1659 89.736 59.6379 89.736C62.9979 89.736 64.6779 91.568 64.6779 95.232L64.5099 97.104H57.0699C57.0859 98.096 57.3019 98.824 57.7179 99.288C58.1339 99.752 58.9099 99.984 60.0459 99.984C61.1819 99.984 62.3499 99.936 63.5499 99.84ZM62.1099 95.088C62.1099 93.904 61.9179 93.08 61.5339 92.616C61.1659 92.136 60.5339 91.896 59.6379 91.896C58.7419 91.896 58.0859 92.144 57.6699 92.64C57.2699 93.136 57.0619 93.952 57.0459 95.088H62.1099ZM76.9854 85.008V102H74.3934V101.376C73.2254 101.968 72.1534 102.264 71.1774 102.264C69.6094 102.264 68.4574 101.792 67.7214 100.848C67.0014 99.904 66.6414 98.32 66.6414 96.096C66.6414 93.872 67.0414 92.256 67.8414 91.248C68.6574 90.24 69.9214 89.736 71.6334 89.736C72.2094 89.736 73.1214 89.84 74.3694 90.048V85.008H76.9854ZM73.9614 99.504L74.3694 99.336V92.232C73.4094 92.072 72.5214 91.992 71.7054 91.992C70.0894 91.992 69.2814 93.336 69.2814 96.024C69.2814 97.496 69.4654 98.52 69.8334 99.096C70.2174 99.656 70.8174 99.936 71.6334 99.936C72.4494 99.936 73.2254 99.792 73.9614 99.504ZM91.2598 102.264C88.8598 102.264 87.2278 101.6 86.3638 100.272C85.5158 98.944 85.0918 96.76 85.0918 93.72C85.0918 90.68 85.5238 88.52 86.3878 87.24C87.2518 85.944 88.8758 85.296 91.2598 85.296C92.6838 85.296 94.2518 85.496 95.9637 85.896L95.8678 88.056C94.4278 87.8 92.9878 87.672 91.5478 87.672C90.1078 87.672 89.1318 88.104 88.6198 88.968C88.1078 89.816 87.8518 91.424 87.8518 93.792C87.8518 96.144 88.0998 97.752 88.5958 98.616C89.0918 99.464 90.0598 99.888 91.4998 99.888C92.9398 99.888 94.3958 99.768 95.8678 99.528L95.9398 101.736C94.2918 102.088 92.7318 102.264 91.2598 102.264ZM98.9195 91.296C99.7515 90.256 101.128 89.736 103.048 89.736C104.968 89.736 106.336 90.256 107.152 91.296C107.984 92.336 108.4 93.896 108.4 95.976C108.4 98.056 108 99.624 107.2 100.68C106.4 101.736 105.016 102.264 103.048 102.264C101.08 102.264 99.6955 101.736 98.8955 100.68C98.0955 99.624 97.6955 98.056 97.6955 95.976C97.6955 93.896 98.1035 92.336 98.9195 91.296ZM100.888 99.096C101.256 99.736 101.976 100.056 103.048 100.056C104.12 100.056 104.84 99.736 105.208 99.096C105.576 98.456 105.76 97.408 105.76 95.952C105.76 94.496 105.56 93.464 105.16 92.856C104.776 92.248 104.072 91.944 103.048 91.944C102.024 91.944 101.312 92.248 100.912 92.856C100.528 93.464 100.336 94.496 100.336 95.952C100.336 97.408 100.52 98.456 100.888 99.096ZM113.614 102H110.998V90H113.59V90.744C114.758 90.072 115.862 89.736 116.902 89.736C118.502 89.736 119.59 90.192 120.166 91.104C120.758 92 121.054 93.488 121.054 95.568V102H118.462V95.64C118.462 94.344 118.318 93.424 118.03 92.88C117.758 92.336 117.19 92.064 116.326 92.064C115.51 92.064 114.726 92.224 113.974 92.544L113.614 92.688V102ZM130.556 92.232H127.244V97.512C127.244 98.488 127.316 99.136 127.46 99.456C127.604 99.776 127.972 99.936 128.564 99.936L130.532 99.864L130.652 101.952C129.58 102.16 128.764 102.264 128.204 102.264C126.844 102.264 125.908 101.952 125.396 101.328C124.9 100.704 124.652 99.528 124.652 97.8V92.232H123.116V90H124.652V86.52H127.244V90H130.556V92.232ZM141.581 93.696V99.168C141.597 99.52 141.685 99.784 141.845 99.96C142.021 100.12 142.285 100.224 142.637 100.272L142.565 102.264C141.189 102.264 140.125 101.968 139.373 101.376C138.093 101.968 136.805 102.264 135.509 102.264C133.125 102.264 131.933 100.992 131.933 98.448C131.933 97.232 132.253 96.352 132.893 95.808C133.549 95.264 134.549 94.936 135.893 94.824L138.989 94.56V93.696C138.989 93.056 138.845 92.608 138.557 92.352C138.285 92.096 137.877 91.968 137.333 91.968C136.309 91.968 135.029 92.032 133.493 92.16L132.725 92.208L132.629 90.36C134.373 89.944 135.973 89.736 137.429 89.736C138.901 89.736 139.957 90.056 140.597 90.696C141.253 91.32 141.581 92.32 141.581 93.696ZM136.205 96.672C135.101 96.768 134.549 97.368 134.549 98.472C134.549 99.576 135.037 100.128 136.013 100.128C136.813 100.128 137.661 100 138.557 99.744L138.989 99.6V96.408L136.205 96.672ZM149.353 89.736C150.201 89.736 151.201 89.848 152.353 90.072L152.953 90.192L152.857 92.256C151.593 92.128 150.657 92.064 150.049 92.064C148.833 92.064 148.017 92.336 147.601 92.88C147.185 93.424 146.977 94.448 146.977 95.952C146.977 97.456 147.177 98.496 147.577 99.072C147.977 99.648 148.809 99.936 150.073 99.936L152.881 99.744L152.953 101.832C151.337 102.12 150.121 102.264 149.305 102.264C147.481 102.264 146.193 101.776 145.441 100.8C144.705 99.808 144.337 98.192 144.337 95.952C144.337 93.712 144.729 92.12 145.513 91.176C146.297 90.216 147.577 89.736 149.353 89.736ZM161.938 92.232H158.626V97.512C158.626 98.488 158.698 99.136 158.842 99.456C158.986 99.776 159.354 99.936 159.946 99.936L161.914 99.864L162.034 101.952C160.962 102.16 160.146 102.264 159.586 102.264C158.226 102.264 157.29 101.952 156.778 101.328C156.282 100.704 156.034 99.528 156.034 97.8V92.232H154.498V90H156.034V86.52H158.626V90H161.938V92.232ZM172.412 92.472C170.524 92.216 169.156 92.088 168.308 92.088C167.46 92.088 166.868 92.192 166.532 92.4C166.212 92.592 166.052 92.904 166.052 93.336C166.052 93.768 166.228 94.072 166.58 94.248C166.948 94.424 167.796 94.632 169.124 94.872C170.468 95.096 171.42 95.456 171.98 95.952C172.54 96.448 172.82 97.328 172.82 98.592C172.82 99.856 172.412 100.784 171.596 101.376C170.796 101.968 169.62 102.264 168.068 102.264C167.092 102.264 165.86 102.128 164.372 101.856L163.628 101.736L163.724 99.552C165.644 99.808 167.028 99.936 167.876 99.936C168.724 99.936 169.324 99.832 169.676 99.624C170.044 99.416 170.228 99.072 170.228 98.592C170.228 98.112 170.052 97.784 169.7 97.608C169.364 97.416 168.54 97.216 167.228 97.008C165.932 96.784 164.98 96.44 164.372 95.976C163.764 95.512 163.46 94.664 163.46 93.432C163.46 92.2 163.876 91.28 164.708 90.672C165.556 90.064 166.636 89.76 167.948 89.76C168.972 89.76 170.228 89.888 171.716 90.144L172.46 90.288L172.412 92.472Z" fill="#1F2633"/>
<circle cx="86.5" cy="22.5" r="22.5" fill="#2DA5FC" fill-opacity="0.5"/>
<path fill-rule="evenodd" clip-rule="evenodd" d="M77.8749 20.6425C76.9885 19.7977 75.5513 19.7977 74.6648 20.6425C73.7784 21.4873 73.7784 22.857 74.6648 23.7018L82.3228 31L97.3352 16.6929C98.2216 15.8481 98.2216 14.4784 97.3352 13.6336C96.4487 12.7888 95.0115 12.7888 94.1251 13.6336L82.3228 24.8815L77.8749 20.6425Z" fill="black"/>
</svg>
